<svg width="457" height="213" viewBox="0 0 457 213" fill="none" xmlns="http://www.w3.org/2000/svg">
<path d="M380.7 75.9L406.1 1.89999H431.3L457 75.9H436.8L433.1 62.5H404.5L400.7 75.9H380.7ZM416.4 23.8L408.9 48.3H429L421.5 23.8C421.1 22.6 420.7 21.4 420.3 20.2C420 18.9 419.7 17.7 419.5 16.4C419.3 15.9 419.2 15.5 419.2 15.1C419.1 14.6 419 14.2 419 13.8C418.9 14.2 418.8 14.6 418.7 15.1C418.6 15.5 418.5 15.9 418.5 16.4C418.4 16.6 418.4 16.7 418.4 16.9C418.4 17 418.4 17.1 418.3 17.2C418.1 18.3 417.8 19.5 417.5 20.6C417 21.6 416.7 22.7 416.4 23.8ZM298.7 75.9V1.89999H318.2L346.1 39.9C346.8 41 347.5 42.2 348.1 43.4C348.8 44.6 349.5 45.8 350.1 47L351.5 50C352 51 352.4 52 352.9 52.9C352.8 52.1 352.7 51.3 352.6 50.5C352.5 49.7 352.4 48.9 352.4 48.1C352.2 46.5 352.1 44.9 352.1 43.3C352 41.6 352 40 352 38.3V2H371.4V76H352L323.9 37.8C323.1 36.9 322.4 35.8 321.7 34.5C321 33.2 320.3 31.8 319.7 30.4C319.3 29.4 318.8 28.5 318.3 27.5C317.9 26.6 317.6 25.6 317.1 24.7C317.5 27.1 317.8 29.5 318 32C318.2 34.5 318.3 37 318.3 39.4V75.9H298.7ZM210.7 21C214.3 14.4 219.2 9.39999 225.6 5.89999C232 2.39999 238.6 0.699997 245.5 0.699997C246.4 0.699997 247.4 0.700003 248.3 0.800003C249.3 0.900003 250.3 1 251.2 1C254.1 1.4 256.9 2.10001 259.7 3.10001C262.6 4.10001 265.3 5.4 267.8 7C273.3 10.6 277.6 15.3 280.6 21.3C283.6 27.2 285.1 33.3 285.1 39.8C285.1 40.6 285.1 41.4 285 42.2C285 43 284.9 43.7 284.8 44.5C284.6 46.2 284.3 47.8 283.9 49.4C283.5 51 283 52.5 282.4 54C279.1 61.5 274.1 67.4 267.2 71.5C260.3 75.6 253.1 77.7 245.5 77.7C245 77.7 244.4 77.7 243.9 77.6H242.4C239.7 77.4 237.1 76.9 234.5 76.2C231.9 75.5 229.4 74.5 227.1 73.3C220.6 69.9 215.5 65.1 211.8 58.8C208.1 52.5 206.2 45.9 206.2 39.1C206.2 38.1 206.2 37.1 206.3 36.1C206.4 35.1 206.5 34 206.8 33C207.2 31 207.7 28.9 208.4 27C208.8 24.8 209.7 22.9 210.7 21ZM263.5 47.6C263.7 46.8 263.9 46 264.1 45.2C264.3 44.3 264.5 43.5 264.6 42.6C264.7 42.1 264.7 41.5 264.7 41C264.8 40.5 264.8 40 264.8 39.5C264.8 39 264.8 38.6 264.7 38.1V36.7C264.3 33.4 263.3 30.2 261.7 27.1C260.1 24 257.8 21.6 255 19.9C254.2 19.5 253.5 19.2 252.7 18.9C251.9 18.6 251.2 18.3 250.4 18.1C249.6 17.9 248.9 17.8 248.1 17.8C247.3 17.6 246.6 17.6 245.8 17.6C241.9 17.6 238.2 18.8 234.9 21.3C231.6 23.8 229.2 27.1 227.9 31.2L227.7 31.7V32.2C227.5 32.9 227.3 33.7 227.1 34.4C226.9 35.1 226.8 35.8 226.6 36.6L226.4 38.2V40.6C226.4 40.8 226.4 41.1 226.5 41.4C226.7 45.5 228 49.4 230.2 53.1C232.5 56.7 235.7 59.1 239.7 60.3L241.1 60.8C241.6 60.9 242.1 61 242.6 61L244 61.2H245.4C249.5 61.2 253.2 60 256.4 57.6C259.7 55 262.1 51.7 263.5 47.6ZM181.4 69C177.8 71.5 173.8 73.2 169.6 74.1C165.4 75 161 75.6 156.7 75.8C155.5 75.9 154.2 75.9 153 75.9H129.2V1.89999H154.3C155.5 1.89999 156.7 1.9 157.9 2C162.1 2.2 166.2 2.8 170.2 3.7C174.3 4.6 178.1 6.4 181.5 8.8C185.8 11.8 189.2 15.8 191.6 20.8C194 25.8 195.4 30.9 195.7 36.1C195.8 36.6 195.8 37 195.8 37.5V40.4C195.6 45.9 194.3 51.2 191.9 56.3C189.5 61.4 185.9 65.7 181.4 69ZM149 59.3C149.2 59.3 149.5 59.3 149.7 59.4H150.5C150.8 59.4 151.1 59.4 151.3 59.5H154.4C155.3 59.4 156.1 59.3 156.8 59.3C158.8 59.1 160.8 58.8 162.7 58.3C164.6 57.8 166.4 56.9 167.9 55.9C170.4 54.1 172.2 51.7 173.4 48.7C174.6 45.6 175.3 42.4 175.3 39.1V38.2C175.3 37.9 175.3 37.6 175.2 37.3C175 34.4 174.3 31.5 173.1 28.8C171.9 26 170.2 23.8 168 22.2C166.4 20.9 164.5 20 162.5 19.5C160.5 19 158.5 18.8 156.5 18.7H149V59.3ZM69.1 75.9V1.89999H114.5V18H88.9V31H112.9V46.8H88.9V59.3H114.4V75.9H69.1ZM9.70005 52.1C9.80005 52.2 9.80005 52.3 9.80005 52.3C9.90005 52.3 10 52.3 10 52.4C12.1 54.7 14.5 56.9 17.1 58.9C19.7001 60.8 22.8001 61.9 26.2001 62C26.3001 62 26.4 62 26.4 62.1H26.7001C26.8001 62.1 26.9 62.1 26.9 62.2H28.2001C28.6 62.1 28.9001 62 29.2001 62C30.4001 61.8 31.6 61.3 32.7001 60.6C33.9001 59.9 34.8001 59.1 35.4001 58L35.6 57.5L35.8 57C36 56.5 36.1 56 36.1 55.5C36.2 55 36.2001 54.6 36.2001 54.2C36.2001 52.1 35.3001 50.4 33.4001 49C31.7001 47.6 29.7001 46.4 27.6 45.6C26.8001 45.3 26 45.1 25.2001 44.9C24.5 44.7 23.7001 44.5 23 44.3H22.8C22.7 44.2 22.6 44.2 22.6 44.2C18.8001 43.3 15.2 41.8 11.9 39.8C8.60005 37.7 6.30005 34.7 5.00005 30.9C4.80005 30.1 4.50005 29.3 4.30005 28.5C4.10005 27.6 4.00005 26.7 4.00005 25.8C4.00005 25.7 4.00005 25.4 4.00005 25.2V22.4C4.10005 21.8 4.20005 21.2 4.30005 20.5C4.50005 18.9 4.90005 17.4 5.50005 15.9C6.00005 14.4 6.70005 13 7.60005 11.7C10.1 7.6 13.3 4.69999 17.1 2.89999C21 1.09999 25.2001 0.199997 29.4 0.199997C30.4 0.199997 31.4001 0.299994 32.4001 0.399994C33.5 0.499994 34.6001 0.599997 35.7001 0.699997C38.5 1.2 41.3001 2 43.9001 3C46.7001 4.1 49.2 5.4 51.6 6.8L45.2001 21.1C43.1001 19.6 40.9 18.2 38.6 17C36.3 15.8 33.8 15.3 31.1 15.3H30.2001C28.4001 15.5 26.8001 16.3 25.2001 17.7C23.7001 19 22.9 20.4 22.9 22V22.7C23 22.9 23.1 23.2 23.2001 23.4C23.4001 23.9 23.6 24.4 24 24.9C24.4 25.4 24.8 25.8 25.3 26.2C26.2 26.9 27.4 27.6 29 28.2C30.6 28.7 32.3 29.3 34.1 29.8C35.6 30.2 37 30.6 38.4001 31C39.8001 31.3 41 31.6 41.9001 31.9C46.2001 33.4 49.5 36 51.7001 39.7C53.9001 43.3 55 47.1 55.1 51.1V51.7C55.1 52.2 55.1 52.6 55 53.1V54.4C54.5 58.4 53.2 62.3 51.1 65.9C49 69.5 46.2 72.3 42.6 74.3C41.3 74.9 39.9001 75.5 38.5 75.9C37.1 76.3 35.7001 76.6 34.3 76.9C33.2001 77.1 32 77.3 30.8 77.4C29.7 77.6 28.6 77.6 27.4 77.6H26C21.4 77.4 16.8 76.4 12.3 74.6C7.80005 72.7 3.80005 70.1 0.300049 66.9L9.70005 52.1ZM351.3 199.2C351.3 198.9 351.4 198.6 351.5 198.3C351.6 198 351.8 197.7 352 197.5C352.2 197.3 352.5 197.1 352.8 196.9C353.1 196.8 353.5 196.7 353.9 196.7C354.4 196.7 354.8 196.8 355.2 197C355.6 197.2 356 197.4 356.3 197.7C356.5 198 356.7 198.3 356.9 198.7C357 199.1 357.1 199.5 357.1 200C357.1 200.9 356.9 201.6 356.6 202.4C356.3 203.1 355.9 203.8 355.3 204.3C355 204.6 354.8 204.8 354.5 205C354.2 205.2 353.9 205.4 353.6 205.5C353.3 205.6 353.1 205.8 352.9 205.9C352.8 206 352.7 206 352.5 206.1L351.1 204.1C351.3 204 351.6 203.9 351.9 203.7C352.2 203.6 352.5 203.4 352.8 203.2C353.1 203 353.3 202.7 353.5 202.4C353.7 202.1 353.8 201.8 353.8 201.4C353.2 201.4 352.6 201.2 352.1 200.8C351.5 200.5 351.3 200 351.3 199.2ZM359.1 199.2C359.1 198.9 359.2 198.6 359.3 198.3C359.4 198 359.6 197.7 359.8 197.5C360 197.3 360.3 197.1 360.6 196.9C360.9 196.8 361.3 196.7 361.7 196.7C362.2 196.7 362.6 196.8 363 197C363.4 197.2 363.8 197.4 364.1 197.7C364.3 198 364.5 198.3 364.7 198.7C364.8 199.1 364.9 199.5 364.9 200C364.9 200.8 364.8 201.6 364.4 202.4C364.1 203.1 363.7 203.8 363.1 204.3C362.8 204.6 362.6 204.8 362.3 205C362 205.2 361.7 205.4 361.4 205.5C361.1 205.6 360.9 205.8 360.7 205.9C360.6 206 360.5 206 360.3 206.1L359 204.1C359.2 204 359.5 203.9 359.8 203.7C360.1 203.6 360.4 203.4 360.7 203.2C361 203 361.2 202.7 361.4 202.4C361.6 202.1 361.7 201.8 361.7 201.4C361.1 201.4 360.5 201.2 360 200.8C359.3 200.5 359.1 200 359.1 199.2ZM94.5 140.5C94.5 140.8 94.4 141.1 94.3 141.4C94.2001 141.7 94 142 93.8 142.2C93.3 142.7 92.6 143 91.9 143C91.5 143 91 142.9 90.6 142.7C90.2 142.5 89.8 142.3 89.5 142C89.2 141.7 89 141.3 88.9 141C88.8 140.6 88.7 140.2 88.7 139.7C88.7 138.8 88.9 138.1 89.2 137.3C89.5 136.6 89.9 135.9 90.5 135.4C90.8 135.1 91 134.9 91.3 134.7C91.6001 134.5 91.9 134.3 92.2 134.2C92.5 134.1 92.7001 133.9 92.9 133.8C93.1 133.7 93.2001 133.7 93.3 133.6L94.6 135.6C94.3 135.7 94 135.8 93.8 136C93.5 136.1 93.2001 136.3 92.9 136.5C92.6 136.7 92.4 137 92.2 137.3C92 137.6 91.9 137.9 91.9 138.3C92.6 138.3 93.1 138.5 93.6 138.9C94.3 139.3 94.5 139.8 94.5 140.5ZM86.7 140.5C86.7 141.1 86.5 141.7 86 142.2C85.8 142.4 85.5 142.6 85.2 142.8C84.9 142.9 84.5 143 84.1 143C83.7 143 83.2001 142.9 82.8 142.7C82.4 142.5 82 142.3 81.7 142C81.4 141.7 81.2 141.3 81.1 141C81 140.6 80.9 140.2 80.9 139.7C80.9 138.8 81.1 138.1 81.4 137.3C81.7001 136.6 82.1 135.9 82.7 135.4C82.9 135.2 83.2 134.9 83.5 134.7C83.8 134.5 84.1 134.3 84.4 134.2C84.7001 134.1 84.9 133.9 85.1 133.8C85.3 133.7 85.4 133.7 85.5 133.6L86.8 135.6C86.6001 135.7 86.3 135.8 86 136C85.7 136.1 85.4 136.3 85.1 136.5C84.8 136.7 84.6 137 84.4 137.3C84.2001 137.6 84.1 137.9 84.1 138.3C84.8 138.3 85.3 138.5 85.8 138.9C86.4 139.3 86.7 139.8 86.7 140.5ZM332 197.4H335.8L347.6 176.8H343.8L332 197.4ZM331.9 198.9C330.7 198.9 329.7 199.9 329.7 201.1C329.7 202.3 330.6 203.3 331.9 203.3C333.1 203.3 334.1 202.4 334.1 201.1C334.1 199.8 333.1 198.9 331.9 198.9ZM305.5 193.4L306.6 191.5C311 185.4 313.9 187.1 312.6 189.4L310.8 192.5C309.7 194.4 306.3 195.8 305.5 193.4ZM330.6 196.3C330.4 195.7 329.7 195.1 329.2 195L328.9 195.3C327.6 196.9 326 198.2 324.4 199.4C325.6 195.8 325.3 190.3 327.7 185.4L324.9 183.9C323.3 186 319.9 191 316.5 195L316.2 195.3C313.5 198.5 310.8 201 309.2 201C308.4 201 307.6 200.2 307.6 198.5V196.9C310.3 197.2 313.1 195.5 314.8 192.4L315.8 190.7C319.3 184.7 313.6 182.7 309.7 186.2L315.1 176.9H311.3L300.5 195.6C300.3 195.4 300.1 195.3 299.8 195.1L299.5 195.4C296.8 198.6 293.3 201.1 290.6 201.1C288.3 201.1 286.9 199.6 288.6 196.6L292.5 189.8C294.7 186.1 298.5 186.7 296.3 190.6L295.8 191.5H298.9L299.4 190.6C301.4 187.1 299.5 184.5 296.4 184.5C293.3 184.5 290.9 186.1 289.3 188.9L285.6 195.3C285.5 195.3 285.4 195.2 285.4 195.2L285.1 195.5C282.4 198.7 279.7 201.2 278.1 201.2C277.3 201.2 276.8 200.6 277.7 199.1L285.8 185H282L275.3 196.7C272.4 199.3 270.2 200.8 269.5 200.4C268.6 200 269.5 198.6 270 197.8L277.4 184.9H273.6L266.3 197.6C265.5 198.3 263.9 199 263.1 199.5C264.3 195.9 264 190.4 266.4 185.5L263.6 184C262 186.1 253.3 197.7 249.9 201.7C250.2 202.2 250.8 202.6 251.3 203C253.4 200.5 260.6 191.3 262 189.5C260.5 193.4 261.3 200.5 257.7 200.5C256.4 200.5 255.9 199.1 255.9 199.1L253.5 200.3C253.5 200.3 254.2 203.3 257.6 203.3C258 203.3 258.3 203.3 258.7 203.2H258.8C260.7 202.9 263.4 202.1 265.2 200.8C265.2 202.3 266.1 203.3 267.7 203.3C269.8 203.3 272.1 201.4 273.9 199.7C273.5 201.7 274.7 203.3 277.1 203.3C279.4 203.3 282.1 201.4 284.5 198.9C284.5 201.4 286.5 203.3 289.6 203.3C292.7 203.3 295.7 201.6 298.3 199.3L296.2 203H300L304.3 195.5V198.5C304.3 201.7 304.9 203.4 308 203.4C311.1 203.4 314.7 200.1 317.8 196.4C319.9 193.9 321.8 191.3 323.2 189.5C321.7 193.4 322.5 200.5 318.9 200.5C317.6 200.5 317.1 199.1 317.1 199.1L314.7 200.3C314.7 200.3 315.4 203.3 318.8 203.3C319.2 203.3 319.5 203.3 319.9 203.2H320C324 202.7 327.8 199.6 330.6 196.3ZM216 195.2H215.8C214.6 195.2 213.6 196.2 213.6 197.5C213.6 198 213.7 198.4 214 198.8V198.9C212.2 201.9 207.9 201.4 210.1 197.4L213 192.4L214.8 189.3C217.5 184.8 221.1 186.6 218.8 190.5L216 195.2ZM190.6 209.4C189.8 210.8 188.5 210.6 188.5 209.6C188.5 208.6 189.4 207.5 192.3 206.4L190.6 209.4ZM161.8 195.6C159.5 199.2 157.3 200.9 155.7 200.9C154.9 200.9 154.4 200.3 155.3 198.8L160.6 189.6C162.6 186.1 166.7 187 164.8 190.4L161.8 195.6ZM149.8 180.9C150.9 179 152.2 178.1 153.2 178.1C154.6 178.1 155.3 179 155.3 180.4C155.3 183.9 150.9 191.2 145.1 190.3H144.3L149.8 180.9ZM242.6 195L242.3 195.3C239.6 198.5 236.9 201 235.3 201C234.5 201 234 200.4 234.9 198.9L240.3 189.3C241.9 186.4 240.4 184.4 238.3 184.4C236.7 184.4 235 185.3 233.1 187.2L234.5 184.7H230.7L224.6 195.2C224.4 195.1 224.3 195 224.1 194.9L223.8 195.2C222.1 197.1 220 198 218.1 198L221.7 191.9C224 187.9 221.9 184.2 218.3 184.2C215.4 184.2 213.1 185.4 211 189.1L209.1 192.3L207.5 195.1C207.4 195 207.3 195 207.2 194.9L206.9 195.2C203.8 198.8 201.1 201.1 198.1 202.4L208.5 184.7H204.7L198 196.3C195.1 199 192.8 200.5 192.1 200.2C191.2 199.8 192.1 198.4 192.6 197.6L200 184.7H196.2L190.2 195.1C190.1 195 190 195 189.9 194.9L189.6 195.2C186.9 198.4 184.2 200.9 182.6 200.9C181.8 200.9 181.3 200.3 182.2 198.8L187.6 189.2C189.2 186.3 187.7 184.3 185.6 184.3C184 184.3 182.3 185.2 180.4 187.1L181.8 184.6H178L172 195C171.9 194.9 171.8 194.9 171.6 194.8L171.3 195.1C168.6 198.3 165.9 200.8 164.3 200.8C163.5 200.8 163 200.2 163.9 198.7L170 188H167.9C168 186.4 166.4 184.2 163.9 184.2C161.9 184.2 159 185.8 157.4 188.6L153.5 195.3C153.2 195.1 152.9 194.9 152.7 194.8L152.4 195.1C149.7 198.3 147.6 200.8 143.8 200.8C141.2 200.8 139.7 198.2 141.9 194.4L143 192.5C143.7 192.6 144.4 192.7 145.1 192.7C149.1 192.7 153.7 190.6 156.7 185.4C157.8 183.5 158.2 181.8 158.2 180.3C158.2 176.9 156 174.7 153.2 174.7C151.1 174.7 148.7 176.2 147 179.1L141.1 189.2C138.9 188 137.7 185.9 137.7 183.8C137.7 182.1 138.5 180.3 140.1 179L138.9 176.8C136.2 178.7 135 181.3 135 183.8C135 186.8 136.7 189.7 139.8 191.3L138.7 193.3C136 197.9 137.6 203 142.9 203C147.1 203 149 201.1 151.6 198.6C150.8 201 152 203 154.6 203C156.1 203 158 202 159.8 200.5C160 202 161.1 203 163.1 203C164.9 203 166.9 201.9 168.8 200.2L167.4 202.6H171.2L177 192.5C182.8 185.3 185.4 186.2 183.7 189L178.8 197.5C177.2 200.3 178.3 202.9 181.4 202.9C183.4 202.9 185.7 201.5 187.8 199.5C187.3 201.6 188.3 202.9 190.2 202.9C192 202.9 194.1 201.4 195.8 199.9L193.7 203.5C188.6 205 185.4 207.1 185.4 210C185.4 213.6 191 214.4 193.7 209.7L196.6 204.7C199.8 203.7 202.9 201.7 206.1 198.5C205.6 203.8 212.6 205 216.8 199.6H217.6C219 199.6 220.8 199.1 222.5 198.1L220 202.5H223.8L229.6 192.4C235.4 185.2 238 186.1 236.3 188.9L231.4 197.4C229.8 200.2 230.9 202.8 234 202.8C237.1 202.8 240.7 199.5 243.8 195.8C243.7 195.8 243.1 195.2 242.6 195ZM361.2 159.4C358.9 163.1 356.6 164.9 355 164.9C354.2 164.9 353.7 164.3 354.6 162.8L359.9 153.6C361.9 150.1 366 151 364.1 154.4L361.2 159.4ZM325 159.6C322.7 163.2 320.5 164.9 318.9 164.9C318.1 164.9 317.6 164.3 318.5 162.8L323.8 153.6C325.8 150.1 329.9 151 328 154.4L325 159.6ZM285.1 173.4C284.3 174.8 283 174.6 283 173.6C283 172.6 283.9 171.5 286.8 170.4L285.1 173.4ZM293.1 144.9C294.2 143 295.5 142.1 296.5 142.1C302.5 142.1 298 156.5 288.4 154.3H287.6L293.1 144.9ZM370.8 159L370.5 159.3C367.8 162.5 365.1 165 363.5 165C362.7 165 362.2 164.4 363.1 162.9L375.9 140.8H372.1L366.5 150.4C365.8 149.3 364.6 148.4 363 148.4C361 148.4 358.1 150 356.5 152.8L352.8 159.2C352.7 159.2 352.6 159.1 352.6 159.1L352.3 159.4C349.6 162.6 347.3 165.1 345.6 165.1C344.8 165.1 344.3 164.5 345.2 163L350.7 153.4C352.3 150.5 350.8 148.5 348.7 148.5C347.1 148.5 345.4 149.4 343.5 151.3L344.9 148.8H341.1L335.1 159.2C335 159.1 334.9 159.1 334.7 159L334.4 159.3C331.7 162.5 329 165 327.4 165C326.6 165 326.1 164.4 327 162.9L333.1 152.2H331C331.1 150.6 329.5 148.4 327 148.4C325 148.4 322.1 150 320.5 152.8L316.8 159.1L316.6 159.3C313.9 162.5 310.8 165 309.2 165C308.4 165 307.9 164.4 308.8 162.9L312.6 156.3C313.9 154 313.3 152.7 312.1 151.2L310 148.7C309.5 148 309.5 147.2 310.2 146.5L308.2 144.4C306.1 146.3 305.9 148.5 307.2 150.2L307.5 150.6C305.8 153 303.6 156.2 301.1 159.1C301.2 159.2 301.3 159.3 301.4 159.4C298.3 163 295.6 165.3 292.7 166.6L297.5 158.4H293.7L293.3 159.1C291.3 162.6 289 165.1 286.1 165.1C283.5 165.1 283.1 162.5 285.3 158.7L286.4 156.8C287.1 156.9 287.8 157 288.5 157C301.9 157 308.4 139 296.6 139C294.5 139 292.1 140.5 290.4 143.4L284.5 153.5C282.3 152.3 281.1 150.2 281.1 148.1C281.1 146.4 281.9 144.6 283.5 143.3L282.3 141.1C279.6 143 278.4 145.6 278.4 148.1C278.4 151.1 280.1 154 283.2 155.6L282.1 157.6C279.4 162.2 279.9 167.3 285.3 167.3C286.9 167.3 288.2 166.8 289.4 166.1L288.4 167.8C283.3 169.4 280.1 171.4 280.1 174.3C280.1 177.9 285.7 178.7 288.4 174L291.3 169C295.2 167.8 299.1 165.1 303.2 160.3C303.1 160.2 303.1 160.1 303 159.9C304.7 157.9 306.1 156 309 152.2L309.5 152.8C310 153.4 310.2 154.2 309.7 154.9L305.7 161.8C304.1 164.6 305.2 167.2 308.3 167.2C310.2 167.2 312.6 166 314.7 164.2C314.7 165.9 315.8 167.2 318 167.2C319.5 167.2 321.4 166.2 323.2 164.7C323.4 166.2 324.5 167.2 326.5 167.2C328.3 167.2 330.3 166.1 332.2 164.4L330.8 166.8H334.6L340.4 156.7C346.2 149.5 348.8 150.4 347.1 153.2L342.2 161.7C340.6 164.5 341.7 167.1 344.8 167.1C346.8 167.1 348.6 165.7 350.8 163.8C350.6 165.7 351.8 167.1 354.1 167.1C355.6 167.1 357.5 166.1 359.3 164.6C359.5 166.1 360.6 167.1 362.6 167.1C365.7 167.1 369.3 163.8 372.4 160.1C371.9 159.8 371.3 159.2 370.8 159ZM258.5 153.7C260.7 150 264.5 150.6 262.3 154.5L261.8 155.4C260 158.5 257.5 158.4 256.1 157.9L258.5 153.7ZM255.5 167.3C259.8 167.3 264 164 267.2 160.3C266.9 159.8 266.3 159.2 265.8 159L265.5 159.3C262.8 162.5 259.3 165 256.6 165C254.3 165 252.9 163.5 254.6 160.5L255 159.8C257.4 160.8 262 160.3 264.8 155.4L265.3 154.5C267.3 151 265.4 148.4 262.3 148.4C259.3 148.4 256.8 150 255.2 152.8L251.5 159.1C251.5 159.1 251.4 159.1 251.4 159L251.1 159.3C248.4 162.5 245.7 165 244.1 165C243.3 165 242.8 164.4 243.7 162.9L249.1 153.3C250.7 150.4 249.2 148.4 247.1 148.4C245.5 148.4 243.7 149.3 241.8 151.3L247.8 140.8H244L233.3 159.3C233.2 159.2 233 159.1 232.9 159L232.6 159.3C229.9 162.5 227.2 165 225.6 165C224.8 165 224.3 164.4 225.2 162.9L233.3 148.8H236.4L237.5 147H234.4L238 140.8H234.2L230.6 147H227.2L226.1 148.8H229.5L221.9 162C220.3 164.8 221.4 167.4 224.5 167.4C226.4 167.4 228.4 166.2 230.4 164.4L228.9 167H232.7L238.4 157C244.2 149.7 246.8 150.6 245.2 153.4L240.3 161.9C238.7 164.7 239.8 167.3 242.9 167.3C245.2 167.3 247.7 165.5 250.2 163.1C250.4 165.5 252.4 167.3 255.5 167.3ZM128 153.7C130.2 150 134 150.6 131.8 154.5L131.3 155.4C129.5 158.5 127 158.4 125.6 157.9L128 153.7ZM151.1 162.9L156.4 153.7C158.4 150.2 162.5 151.1 160.6 154.5L157.7 159.7C155.4 163.3 153.2 165 151.6 165C150.7 164.9 150.2 164.4 151.1 162.9ZM205.1 153.7C207.3 150 211.1 150.6 208.9 154.5L208.4 155.4C206.6 158.5 204.2 158.4 202.7 157.9L205.1 153.7ZM147.3 163.2C146.7 165.4 147.9 167.3 150.4 167.3C151.9 167.3 153.8 166.3 155.6 164.8C155.8 166.3 156.9 167.3 158.9 167.3C160.9 167.3 163.1 165.9 165.3 164C164.9 166 165.8 167.3 167.7 167.3C169.8 167.3 172.1 165.4 173.9 163.7C173.5 165.7 174.7 167.3 177.1 167.3C180.2 167.3 183.8 164 186.9 160.3C186.9 160.3 186.8 160.2 186.8 160.1C188.9 157.7 190.7 155.1 192 153.3C190.5 157.2 191.3 164.3 187.7 164.3C186.4 164.3 185.9 162.9 185.9 162.9L183.5 164.1C183.5 164.1 184.2 167.2 187.6 167.2C188 167.2 188.3 167.2 188.7 167.1H188.8C191.6 166.7 194.3 165 196.7 162.9C196.8 165.4 198.7 167.2 201.8 167.2C206.1 167.2 210.3 163.9 213.5 160.2C213.2 159.7 212.6 159.1 212.1 158.9L211.8 159.2C209.1 162.4 205.6 164.9 202.9 164.9C200.6 164.9 199.2 163.4 200.9 160.4L201.3 159.7C203.7 160.7 208.3 160.2 211.1 155.3L211.6 154.4C213.6 150.9 211.7 148.3 208.6 148.3C205.5 148.3 203.1 149.9 201.5 152.7L197.8 159H197.7L197.4 159.3C196.1 160.9 194.5 162.2 192.9 163.4C194.1 159.8 193.8 154.3 196.2 149.4L193.4 147.9C191.8 150 188.4 155 185 159L185.1 159.1L185 159.3C182.3 162.5 179.6 165 178 165C177.2 165 176.7 164.4 177.6 162.9L185.7 148.8H181.9L175.2 160.5C172.3 163.1 170.1 164.6 169.4 164.2C168.5 163.8 169.4 162.4 169.9 161.6L177.3 148.7H173.5L167.5 159.1C167.4 159 167.3 159 167.2 158.9L166.9 159.2C164.2 162.4 161.5 164.9 159.9 164.9C159.1 164.9 158.6 164.3 159.5 162.8L165.6 152.1H163.5C163.6 150.5 162 148.3 159.5 148.3C157.5 148.3 154.6 149.9 153 152.7L149.2 159.3C149 159.2 148.8 159 148.6 158.9L148.3 159.2C145.6 162.4 142.4 164.9 139.8 164.9C137.5 164.9 136.1 163.4 137.8 160.4L141.7 153.6C143.9 149.9 147.7 150.5 145.5 154.4L145 155.3H148.1L148.6 154.4C150.6 150.9 148.7 148.3 145.6 148.3C142.5 148.3 140.5 149.9 138.9 152.7L135.1 159.1C135 159 134.9 159 134.8 158.9L134.5 159.2C131.8 162.4 128.6 164.9 125.9 164.9C123.6 164.9 122.2 163.4 123.9 160.4L124.3 159.7C126.7 160.7 131.3 160.2 134.1 155.3L134.6 154.4C136.6 150.9 134.7 148.3 131.6 148.3C128.5 148.3 126.1 149.9 124.5 152.7L120.5 159.5C118.1 163.5 120.2 167.2 124.6 167.2C127.9 167.2 130.6 165.2 133.4 162.6C133.3 165.2 135.3 167.2 138.5 167.2C141.9 167.3 144.6 165.5 147.3 163.2ZM110.4 149.2L113.5 144C116.3 139.2 119.8 142 117.9 145.6C116.4 148.3 114.3 149.2 110.4 149.2ZM106.3 166.5C104 166.5 102.3 166 100.9 165.2C101.6 164.4 102.2 163.5 102.8 162.5L109.2 151.5L110.2 151.6C119 153.4 115.5 166.5 106.3 166.5ZM115.7 151C123.3 148.4 123.9 138.9 116.4 138.9C114.3 138.9 111.9 140.4 110.2 143.3L100 160.9C99.6 161.7 99.1 162.4 98.5 163C95.9 159.4 96.6001 154 100.3 151.7L98.8 149.8C90.9 154.8 93.2001 169.4 106.4 169.4C117.7 169.4 122.9 155.8 115.7 151Z" fill="white"/>
</svg>
